# xmcd
#
# Track frame offsets:
#	150
#	10010
#	41374
#	56625
#	74626
#	96043
#	115940
#	131006
#	153529
#
# Disc length: 2211 seconds
#
# Revision: 0
# Processed by: cddbd v1.5.1PL0 Copyright (c) Steve Scherf et al.
# Submitted via: dBpowerAMP V4.0
#
DISCID=7508a109
DTITLE=Sound Of Ruby  - Thallatha
DYEAR=2005
DGENRE=Grunge
TTITLE0=Sound Of Ruby - Thallatha - 01 - Pokemon is punk
TTITLE1=Sound Of Ruby - Thallatha - 02 - Genius in hell
TTITLE2=Sound Of Ruby - Thallatha - 03 - I found my key
TTITLE3=Sound Of Ruby - Thallatha - 04 - My favorite drill
TTITLE4=Sound Of Ruby - Thallatha - 05 - 100 Kisses
TTITLE5=Sound Of Ruby - Thallatha - 06 - Want my baby back
TTITLE6=Sound Of Ruby - Thallatha - 07 - Everything changes 
TTITLE7=Sound Of Ruby - Thallatha - 08 - My bat friend
TTITLE8=Sound Of Ruby - Thallatha - 09 - genius in hell (mix)
EXTD=Sound Of Ruby
EXTT0=
EXTT1=
EXTT2=
EXTT3=
EXTT4=
EXTT5=
EXTT6=
EXTT7=
EXTT8=
PLAYORDER=
